# xmcd
#
# Track frame offsets: 
#        150
#        5753
#        8725
#        11910
#        14935
#        18090
#        24728
#        30610
#        36770
#        41430
#        46965
#        51668
#        57053
#        61768
#        68763
#        75430
#        82890
#        90530
#        95633
#        102140
#        106918
#        114255
#        122195
#        128578
#        138270
#        145003
#        150348
#        157180
#        164820
#        172838
#        176748
#        183645
#        190360
#
# Disc length: 2643 seconds
#
# Revision: 1
# Processed by: cddbd v1.5.2PL0 Copyright (c) Steve Scherf et al.
# Submitted via: ExactAudioCopy v0.95b4
#
DISCID=ae0a5121
DTITLE=Various Artist - 33 Country and Western Hits
DYEAR=1993
DGENRE=Country
TTITLE0=Hello I Love You
TTITLE1=Sundown
TTITLE2=Woman Beautiful Woman
TTITLE3=Ruby, Don't Take Your Love To Town
TTITLE4=Gentle On My Mind
TTITLE5=Jolene
TTITLE6=Let Your Love Flow
TTITLE7=Rhinestone Cowboy
TTITLE8=Oh Lonesome Me
TTITLE9=Half The Way
TTITLE10=If I Said You Had A Beautiful Body
TTITLE11=Detroit City
TTITLE12=Down The Mississippi
TTITLE13=Mississippi
TTITLE14=Some Days Are Diamons
TTITLE15=Slow Hand
TTITLE16=I Don't Wanna Play House
TTITLE17=Your Cheating Heart
TTITLE18=Listen To The Radio
TTITLE19=You Never Gave Up On Me
TTITLE20=Always On My Mind
TTITLE21=Love Me Tender
TTITLE22=Honey
TTITLE23=The Sweetest Thing
TTITLE24=Only Love
TTITLE25=Annie's Song
TTITLE26=Me And Bobby McGee
TTITLE27=Help Me Make It Through The Night
TTITLE28=When You Were Sweet Sixteen
TTITLE29=Love Hurts
TTITLE30=You Needed Me
TTITLE31=Blue Eyes Crying In The Rain
TTITLE32=I Will Always Love You
EXTD=
EXTT0=
EXTT1=
EXTT2=
EXTT3=
EXTT4=
EXTT5=
EXTT6=
EXTT7=
EXTT8=
EXTT9=
EXTT10=
EXTT11=
EXTT12=
EXTT13=
EXTT14=
EXTT15=
EXTT16=
EXTT17=
EXTT18=
EXTT19=
EXTT20=
EXTT21=
EXTT22=
EXTT23=
EXTT24=
EXTT25=
EXTT26=
EXTT27=
EXTT28=
EXTT29=
EXTT30=
EXTT31=
EXTT32=
PLAYORDER=
